HIERARCHY
ROOT Hips
{
    OFFSET   0.000000   0.000000   0.000000
    CHANNELS 6 Xposition Yposition Zposition Zrotation Xrotation Yrotation
    JOINT Chest
    {
        OFFSET   0.000000   8.007240   0.000000
        CHANNELS 3 Zrotation Xrotation Yrotation
        JOINT Chest2
        {
            OFFSET   0.000000  22.077100   0.000000
            CHANNELS 3 Zrotation Xrotation Yrotation
            JOINT Neck
            {
                OFFSET   0.000000  23.254800   0.000000
                CHANNELS 3 Zrotation Xrotation Yrotation
                JOINT Head
                {
                    OFFSET   0.000000  14.370000   1.956600
                    CHANNELS 3 Zrotation Xrotation Yrotation
                    End Site
                    {
                        OFFSET   0.000000  19.566000   0.000000
                    }
                }
            }
            JOINT LeftCollar
            {
                OFFSET   3.911900  19.017000  -0.467064
                CHANNELS 3 Zrotation Xrotation Yrotation
                JOINT LeftShoulder
                {
                    OFFSET  10.383700   0.000000   0.000000
                    CHANNELS 3 Zrotation Xrotation Yrotation
                    JOINT LeftElbow
                    {
                        OFFSET  26.662100   0.001476   0.000517
                        CHANNELS 3 Zrotation Xrotation Yrotation
                        JOINT LeftWrist
                        {
                            OFFSET  28.869000  -0.000025  -0.000106
                            CHANNELS 3 Zrotation Xrotation Yrotation
                            JOINT LeftFinger0
                            {
                                OFFSET   2.044660  -2.323460   3.252850
                                CHANNELS 3 Zrotation Xrotation Yrotation
                                JOINT LeftFinger01
                                {
                                    OFFSET   3.088130   0.000000   0.000000
                                    CHANNELS 3 Zrotation Xrotation Yrotation
                                    JOINT LeftFinger02
                                    {
                                        OFFSET   2.639460   0.000000   0.000000
                                        CHANNELS 3 Zrotation Xrotation Yrotation
                                        End Site
                                        {
                                            OFFSET   2.582190   0.000000   0.000000
                                        }
                                    }
                                }
                            }
                            JOINT LeftFinger1
                            {
                                OFFSET   8.364480   0.000000   3.252850
                                CHANNELS 3 Zrotation Xrotation Yrotation
                                JOINT LeftFinger11
                                {
                                    OFFSET   4.646930   0.000000   0.000000
                                    CHANNELS 3 Zrotation Xrotation Yrotation
                                    JOINT LeftFinger12
                                    {
                                        OFFSET   2.323460   0.000000   0.000000
                                        CHANNELS 3 Zrotation Xrotation Yrotation
                                        End Site
                                        {
                                            OFFSET   2.273050   0.000000   0.000000
                                        }
                                    }
                                }
                            }
                            JOINT LeftFinger2
                            {
                                OFFSET   8.364490   0.000015   1.078090
                                CHANNELS 3 Zrotation Xrotation Yrotation
                                JOINT LeftFinger21
                                {
                                    OFFSET   5.111620   0.000000   0.000000
                                    CHANNELS 3 Zrotation Xrotation Yrotation
                                    JOINT LeftFinger22
                                    {
                                        OFFSET   2.788160   0.000016   0.000000
                                        CHANNELS 3 Zrotation Xrotation Yrotation
                                        End Site
                                        {
                                            OFFSET   2.727660   0.000000   0.000000
                                        }
                                    }
                                }
                            }
                            JOINT LeftFinger3
                            {
                                OFFSET   7.899780   0.000017  -1.078090
                                CHANNELS 3 Zrotation Xrotation Yrotation
                                JOINT LeftFinger31
                                {
                                    OFFSET   4.646930   0.000000   0.000000
                                    CHANNELS 3 Zrotation Xrotation Yrotation
                                    JOINT LeftFinger32
                                    {
                                        OFFSET   2.323470   0.000000   0.000000
                                        CHANNELS 3 Zrotation Xrotation Yrotation
                                        End Site
                                        {
                                            OFFSET   2.273050   0.000000   0.000000
                                        }
                                    }
                                }
                            }
                            JOINT LeftFinger4
                            {
                                OFFSET   7.435090   0.000000  -3.252850
                                CHANNELS 3 Zrotation Xrotation Yrotation
                                JOINT LeftFinger41
                                {
                                    OFFSET   3.717550   0.000000   0.000000
                                    CHANNELS 3 Zrotation Xrotation Yrotation
                                    JOINT LeftFinger42
                                    {
                                        OFFSET   1.858770   0.000000   0.000000
                                        CHANNELS 3 Zrotation Xrotation Yrotation
                                        End Site
                                        {
                                            OFFSET   1.818440   0.000000   0.000000
                                        }
                                    }
                                }
                            }
                        }
                    }
                }
            }
            JOINT RightCollar
            {
                OFFSET  -3.911900  19.017000  -0.467063
                CHANNELS 3 Zrotation Xrotation Yrotation
                JOINT RightShoulder
                {
                    OFFSET -10.383700   0.000019   0.000000
                    CHANNELS 3 Zrotation Xrotation Yrotation
                    JOINT RightElbow
                    {
                        OFFSET -26.662100   0.001175   0.000102
                        CHANNELS 3 Zrotation Xrotation Yrotation
                        JOINT RightWrist
                        {
                            OFFSET -28.869000   0.000016  -0.000079
                            CHANNELS 3 Zrotation Xrotation Yrotation
                            JOINT RightFinger0
                            {
                                OFFSET  -2.044660  -2.323490   3.252850
                                CHANNELS 3 Zrotation Xrotation Yrotation
                                JOINT RightFinger01
                                {
                                    OFFSET  -3.088140   0.000000   0.000000
                                    CHANNELS 3 Zrotation Xrotation Yrotation
                                    JOINT RightFinger02
                                    {
                                        OFFSET  -2.639460   0.000000   0.000000
                                        CHANNELS 3 Zrotation Xrotation Yrotation
                                        End Site
                                        {
                                            OFFSET  -2.582190   0.000000   0.000000
                                        }
                                    }
                                }
                            }
                            JOINT RightFinger1
                            {
                                OFFSET  -8.364480   0.000000   3.252850
                                CHANNELS 3 Zrotation Xrotation Yrotation
                                JOINT RightFinger11
                                {
                                    OFFSET  -4.646930   0.000000   0.000000
                                    CHANNELS 3 Zrotation Xrotation Yrotation
                                    JOINT RightFinger12
                                    {
                                        OFFSET  -2.323470   0.000000   0.000000
                                        CHANNELS 3 Zrotation Xrotation Yrotation
                                        End Site
                                        {
                                            OFFSET  -2.273050   0.000000   0.000000
                                        }
                                    }
                                }
                            }
                            JOINT RightFinger2
                            {
                                OFFSET  -8.364480   0.000000   1.078090
                                CHANNELS 3 Zrotation Xrotation Yrotation
                                JOINT RightFinger21
                                {
                                    OFFSET  -5.111620   0.000000   0.000000
                                    CHANNELS 3 Zrotation Xrotation Yrotation
                                    JOINT RightFinger22
                                    {
                                        OFFSET  -2.788160   0.000000   0.000000
                                        CHANNELS 3 Zrotation Xrotation Yrotation
                                        End Site
                                        {
                                            OFFSET  -2.727660   0.000000   0.000000
                                        }
                                    }
                                }
                            }
                            JOINT RightFinger3
                            {
                                OFFSET  -7.899780   0.000000  -1.078090
                                CHANNELS 3 Zrotation Xrotation Yrotation
                                JOINT RightFinger31
                                {
                                    OFFSET  -4.646930   0.000000   0.000000
                                    CHANNELS 3 Zrotation Xrotation Yrotation
                                    JOINT RightFinger32
                                    {
                                        OFFSET  -2.323470   0.000000   0.000000
                                        CHANNELS 3 Zrotation Xrotation Yrotation
                                        End Site
                                        {
                                            OFFSET  -2.273050   0.000000   0.000000
                                        }
                                    }
                                }
                            }
                            JOINT RightFinger4
                            {
                                OFFSET  -7.435090   0.000000  -3.252850
                                CHANNELS 3 Zrotation Xrotation Yrotation
                                JOINT RightFinger41
                                {
                                    OFFSET  -3.717550   0.000000   0.000000
                                    CHANNELS 3 Zrotation Xrotation Yrotation
                                    JOINT RightFinger42
                                    {
                                        OFFSET  -1.858770   0.000000   0.000000
                                        CHANNELS 3 Zrotation Xrotation Yrotation
                                        End Site
                                        {
                                            OFFSET  -1.818440   0.000000   0.000000
                                        }
                                    }
                                }
                            }
                        }
                    }
                }
            }
        }
    }
    JOINT LeftHip
    {
        OFFSET   9.783040   0.000000   0.000000
        CHANNELS 3 Zrotation Xrotation Yrotation
        JOINT LeftKnee
        {
            OFFSET   0.000032 -41.789100  -0.002222
            CHANNELS 3 Zrotation Xrotation Yrotation
            JOINT LeftAnkle
            {
                OFFSET   0.000087 -41.133200  -0.000135
                CHANNELS 3 Zrotation Xrotation Yrotation
                JOINT LeftToe
                {
                    OFFSET   0.000000  -6.358960  14.674500
                    CHANNELS 3 Zrotation Xrotation Yrotation
                    End Site
                    {
                        OFFSET   0.000000   0.000000   3.913200
                    }
                }
            }
        }
    }
    JOINT RightHip
    {
        OFFSET  -9.783040   0.000000   0.000000
        CHANNELS 3 Zrotation Xrotation Yrotation
        JOINT RightKnee
        {
            OFFSET   0.000047 -41.789100  -0.000896
            CHANNELS 3 Zrotation Xrotation Yrotation
            JOINT RightAnkle
            {
                OFFSET  -0.000117 -41.133300  -0.000248
                CHANNELS 3 Zrotation Xrotation Yrotation
                JOINT RightToe
                {
                    OFFSET   0.000000  -6.358970  14.674500
                    CHANNELS 3 Zrotation Xrotation Yrotation
                    End Site
                    {
                        OFFSET   0.000000   0.000000   3.913200
                    }
                }
            }
        }
    }
}
MOTION
Frames: 6
Frame Time:   0.016667
  1.247890  90.012400  -0.550281  -1.124290  -2.649230  -1.393080   0.044408   2.756440  -0.012829   0.089594   5.512910  -0.027849   2.031380  -0.647765   0.021808   3.342950  -1.308820   5.073270  -4.831950  -0.637759   4.897940 -72.203100  17.890000  -0.170366  -4.475340  -8.900770 -16.211200  13.530300   4.784590   7.376750  41.175800  30.775400 -68.608300 -23.402600   0.000098   0.000122  -6.701290  -0.001656   0.011952 -31.520500   7.208870 -11.563800 -26.387500  -0.002729  -0.005848 -18.471200  -0.003273  -0.004855 -28.477300  -3.750020   6.876630 -39.000600  -0.011724  -0.005074 -25.974400  -0.004725  -0.004116 -28.170400  -3.713050   6.896590 -35.009100   0.001329  -0.000587 -23.316100   0.000000  -0.000455 -35.622400  -4.578390   6.356690 -53.815200   0.001332   0.001523 -35.840900   0.009236   0.001348  10.327800   2.318530   6.334520  68.075400   3.533450  -1.465540   2.701320 -11.154200  12.604400 -16.424500 -17.649500   5.543170 -35.824300  26.957400  64.719300  29.652800  -0.012308  -0.002045   9.819390   0.004399  -0.001148  30.335500   0.961185   1.652320  24.839300  -0.002615   0.009802  17.387500  -0.003353   0.005256  21.145600  -3.898600  -9.981800  21.486300   0.001410  -0.001010  14.318200   0.000758  -0.004999  30.090800  -5.416930  -9.247350  45.794600  -0.003665   0.000351  30.499200   0.000305   0.001481  45.353200  -7.659400  -7.496800  68.770400  -0.004232   0.005137  45.810100  -0.000441   0.004019  -0.443422   3.966100   2.957180   0.173816  -0.002491  13.890300  -3.714060  -3.722940   6.169070   0.000000   0.000000  -0.000000   2.274170   3.094000 -10.179300  -0.055062   2.367560  -8.391240  -9.847890   0.152816   0.592191   0.000000   0.000000   0.000000
  1.244230  90.012400  -0.546713  -1.124260  -2.653840  -1.393320   0.044410   2.756860  -0.012769   0.089596   5.513740  -0.027730   2.031380  -0.641411   0.021816   3.342580  -1.295870   5.083220  -4.831940  -0.637263   4.902660 -72.210700  17.885700  -0.174356  -4.473100  -8.884630 -16.225500  13.532200   4.784560   7.380430  41.181300  30.794300 -68.614500 -23.418000   0.000105   0.000115  -6.709010  -0.001662   0.011952 -31.499700   7.196620 -11.555800 -26.369200  -0.002714  -0.005842 -18.458400  -0.003271  -0.004847 -28.473200  -3.767030   6.908380 -38.985200  -0.011719  -0.005069 -25.964200  -0.004723  -0.004111 -28.165200  -3.729860   6.928450 -35.003000   0.001334  -0.000573 -23.312000   0.000000  -0.000439 -35.619200  -4.599230   6.386080 -53.814900   0.001334   0.001532 -35.840700   0.009233   0.001354  10.327500   2.318740   6.339720  68.083500   3.559520  -1.459400   2.706190 -11.174500  12.606500 -16.422500 -17.641800   5.551880 -35.821100  26.972400  64.734800  29.652800  -0.012321  -0.002060   9.819410   0.004397  -0.001135  30.333100   0.962800   1.652480  24.833900  -0.002597   0.009804  17.383700  -0.003346   0.005251  21.145800  -3.898660  -9.981630  21.486400   0.001399  -0.001018  14.315900   0.000758  -0.005008  30.087000  -5.416710  -9.247350  45.788700  -0.003644   0.000318  30.495300   0.000293   0.001458  45.349000  -7.659130  -7.496760  68.770500  -0.004239   0.005141  45.805700  -0.000468   0.004006  -0.437561   4.028430   2.955730   0.172166  -0.035916  13.901200  -3.719200  -3.742540   6.162880  -0.000000   0.000000   0.000000   2.276260   3.101640 -10.179500  -0.054332   2.367750  -8.391060  -9.853590   0.151426   0.592415   0.000000   0.000000  -0.000000
  1.237860  90.012300  -0.540746  -1.124360  -2.664070  -1.393580   0.044411   2.759540  -0.012708   0.089600   5.519090  -0.027611   2.031380  -0.630987   0.021833   3.341990  -1.274680   5.100320  -4.831870  -0.636762   4.912100 -72.223500  17.881400  -0.185126  -4.470840  -8.868500 -16.239900  13.540700   4.784440   7.391430  41.194500  30.827200 -68.627600 -23.433500   0.000123   0.000107  -6.716730  -0.001680   0.011955 -31.433500   7.173820 -11.547500 -26.312500  -0.002680  -0.005828 -18.418800  -0.003261  -0.004826 -28.469100  -3.784030   6.940130 -38.957600  -0.011703  -0.005060 -25.945800  -0.004719  -0.004096 -28.158300  -3.746660   6.960310 -34.983400   0.001348  -0.000537 -23.298900   0.000000  -0.000397 -35.616100  -4.620070   6.415480 -53.812700   0.001344   0.001552 -35.839300   0.009223   0.001369  10.327000   2.318930   6.348580  68.091900   3.598820  -1.450110   2.712410 -11.194600  12.615400 -16.418900 -17.631000   5.567240 -35.824200  26.992100  64.751500  29.652800  -0.012361  -0.002088   9.819430   0.004389  -0.001121  30.325300   0.967613   1.653630  24.823100  -0.002550   0.009806  17.376100  -0.003330   0.005233  21.145900  -3.898710  -9.981460  21.486600   0.001377  -0.001041  14.310100   0.000756  -0.005032  30.083200  -5.416490  -9.247350  45.782900  -0.003591   0.000241  30.491400   0.000261   0.001397  45.344800  -7.658860  -7.496690  68.770800  -0.004257   0.005155  45.801300  -0.000539   0.003964  -0.428221   4.090770   2.952490   0.170538  -0.069336  13.919000  -3.724600  -3.762160   6.152670  -0.000000   0.000000  -0.000000   2.281430   3.115120 -10.179800  -0.053440   2.369030  -8.390890  -9.862050   0.147816   0.592639   0.000000   0.000000  -0.000000
  1.232310  90.012300  -0.536040  -1.125920  -2.677200  -1.392420   0.044411   2.765600  -0.012844   0.089607   5.531190  -0.027885   2.031430  -0.622783   0.021854   3.341590  -1.258140   5.115870  -4.833060  -0.639555   4.923280 -72.234600  17.899800  -0.203646  -4.467740  -8.875940 -16.238500  13.555900   4.783510   7.413730  41.220600  30.862200 -68.651100 -23.433000   0.000151   0.000146  -6.716510  -0.001713   0.011962 -31.296400   7.147600 -11.565200 -26.199100  -0.002633  -0.005807 -18.339400  -0.003236  -0.004793 -28.470200  -3.779920   6.932970 -38.924300  -0.011674  -0.005048 -25.923700  -0.004716  -0.004073 -28.153400  -3.742240   6.953300 -34.935200   0.001373  -0.000482 -23.266900   0.000040  -0.000334 -35.597200  -4.613190   6.410250 -53.782800   0.001364   0.001578 -35.819400   0.009205   0.001391  10.326800   2.318890   6.356620  68.091600   3.620720  -1.445780   2.719010 -11.190100  12.636400 -16.417700 -17.626400   5.582310 -35.839300  27.004200  64.745400  29.645800  -0.012431  -0.002119   9.819420   0.004373  -0.001135  30.305500   0.976049   1.666960  24.806400  -0.002472   0.009807  17.364500  -0.003313   0.005196  21.133900  -3.898360  -9.981500  21.474500   0.001349  -0.001082  14.300300   0.000752  -0.005069  30.085800  -5.416510  -9.249320  45.786900  -0.003510   0.000135  30.494000   0.000208   0.001296  45.350700  -7.660660  -7.496610  68.779800  -0.004284   0.005179  45.807200  -0.000652   0.003889  -0.423356   4.066420   2.947660   0.173658  -0.049114  13.935200  -3.721360  -3.746530   6.144790   0.000000   0.000000   0.000000   2.289630   3.125830 -10.179900  -0.053228   2.375320  -8.390970  -9.866380   0.142187   0.591507  -0.000000   0.000000  -0.000000
  1.226220  90.012200  -0.531089  -1.128010  -2.694220  -1.388800   0.044398   2.774520  -0.013794   0.089625   5.549030  -0.029801   2.031510  -0.615212   0.021880   3.341240  -1.242930   5.130510  -4.834700  -0.646541   4.935650 -72.245700  17.933600  -0.224666  -4.462160  -8.891000 -16.235300  13.584200   4.778500   7.435320  41.237200  30.887100 -68.664200 -23.429900   0.000185   0.000184  -6.714950  -0.001756   0.011971 -31.152700   7.123730 -11.593500 -26.081100  -0.002572  -0.005779 -18.256800  -0.003206  -0.004751 -28.471800  -3.773350   6.921190 -38.903200  -0.011637  -0.005032 -25.909600  -0.004712  -0.004043 -28.150800  -3.735350   6.941690 -34.900700   0.001404  -0.000414 -23.243900   0.000113  -0.000256 -35.579000  -4.603130   6.400870 -53.754800   0.001390   0.001610 -35.800700   0.009183   0.001418  10.326900   2.318860   6.363860  68.091200   3.639320  -1.440260   2.726790 -11.180100  12.669100 -16.426600 -17.624800   5.596500 -35.853100  27.015200  64.733700  29.638800  -0.012522  -0.002153   9.819410   0.004355  -0.001163  30.290900   0.986753   1.688710  24.795300  -0.002378   0.009807  17.356700  -0.003290   0.005151  21.116800  -3.897500  -9.981790  21.457300   0.001316  -0.001132  14.290600   0.000746  -0.005116  30.095000  -5.416850  -9.252130  45.800600  -0.003411  -0.000000  30.503200   0.000143   0.001175  45.366400  -7.664290  -7.496560  68.803400  -0.004316   0.005209  45.823000  -0.000791   0.003796  -0.419552   4.042070   2.943040   0.177247  -0.016346  13.944700  -3.718110  -3.730900   6.137010  -0.000000   0.000000   0.000000   2.298890   3.140780 -10.179900  -0.052852   2.382650  -8.391340  -9.870030   0.135054   0.588317   0.000000   0.000000   0.000000
  1.219420  90.012100  -0.525403  -1.129000  -2.715510  -1.381910   0.044390   2.786340  -0.017364   0.089787   5.572650  -0.036962   2.031570  -0.609001   0.021907   3.340970  -1.230520   5.141610  -4.835060  -0.657544   4.947310 -72.257300  17.967000  -0.241281  -4.457090  -8.910970 -16.230500  13.637500   4.766330   7.443230  41.252500  30.885100 -68.646900 -23.406400   0.000216   0.000166  -6.703200  -0.001806   0.011978 -31.058100   7.113700 -11.616800 -26.004200  -0.002495  -0.005742 -18.202900  -0.003177  -0.004708 -28.473200  -3.767600   6.909940 -38.930700  -0.011598  -0.005011 -25.928000  -0.004705  -0.004008 -28.154100  -3.729870   6.930300 -34.924500   0.001436  -0.000337 -23.259700   0.000185  -0.000170 -35.588400  -4.597270   6.389530 -53.767700   0.001417   0.001648 -35.809200   0.009156   0.001448  10.327500   2.317520   6.368460  68.091400   3.653630  -1.429170   2.731100 -11.161800  12.711800 -16.451800 -17.641800   5.605260 -35.849100  27.015200  64.717900  29.649800  -0.012625  -0.002189   9.824930   0.004343  -0.001196  30.299900   1.001690   1.713430  24.803100  -0.002284   0.009808  17.362200  -0.003257   0.005106  21.110900  -3.896190  -9.982580  21.451200   0.001277  -0.001182  14.286500   0.000742  -0.005168  30.113700  -5.419910  -9.253290  45.829100  -0.003305  -0.000167  30.522200   0.000072   0.001052  45.393500  -7.668610  -7.496530  68.844800  -0.004351   0.005238  45.850600  -0.000943   0.003700  -0.414287   4.051370   2.940790   0.176088   0.013639  13.944400  -3.724840  -3.746120   6.129520  -0.000000   0.000000   0.000000   2.306720   3.166450 -10.178500  -0.052261   2.384880  -8.395930  -9.874040   0.126602   0.582556   0.000000   0.000000   0.000000
